<?xml version="1.0" standalone="no"?>
<!DOCTYPE svg PUBLIC "-//W3C//DTD SVG 20010904//EN"
 "http://www.w3.org/TR/2001/REC-SVG-20010904/DTD/svg10.dtd">
<svg version="1.0" xmlns="http://www.w3.org/2000/svg"
 width="768.000000pt" height="382.000000pt" viewBox="0 0 768.000000 382.000000"
 preserveAspectRatio="xMidYMid meet">

<g transform="translate(0.000000,382.000000) scale(0.100000,-0.100000)"
fill="#000000" stroke="none">
<path d="M655 2440 c-45 -14 -110 -74 -134 -123 -61 -126 -19 -324 83 -386 75
-46 204 -45 276 3 34 22 102 128 90 139 -3 3 -19 8 -36 11 -30 7 -33 4 -54
-38 -31 -65 -75 -89 -151 -84 -67 5 -103 26 -134 79 -29 50 -29 207 1 264 56
107 223 115 275 13 19 -37 22 -39 52 -33 18 4 34 9 37 12 11 11 -46 95 -83
120 -34 24 -51 28 -116 30 -42 1 -90 -2 -106 -7z"/>
<path d="M5140 2298 c0 -84 4 -158 8 -164 8 -13 46 -34 61 -34 18 0 12 29 -9
50 -18 18 -20 33 -20 160 0 133 -1 140 -20 140 -19 0 -20 -7 -20 -152z"/>
<path d="M320 2169 l0 -270 33 3 32 3 3 268 2 267 -35 0 -35 0 0 -271z"/>
<path d="M1060 2170 l0 -270 35 0 35 0 0 130 0 130 140 0 139 0 3 -127 3 -128
33 -3 32 -3 0 270 0 271 -35 0 -35 0 0 -110 0 -110 -140 0 -140 0 0 110 0 110
-35 0 -35 0 0 -270z"/>
<path d="M1747 2433 c-11 -18 -197 -512 -197 -522 0 -6 15 -11 34 -11 36 0 34
-4 77 113 l21 58 111 -3 111 -3 32 -80 32 -80 41 -3 c23 -2 41 -1 41 1 0 2
-49 122 -108 268 l-109 264 -40 3 c-23 2 -43 -1 -46 -5z m61 -108 c5 -16 24
-67 41 -112 l30 -83 -88 0 -88 0 38 105 c22 58 39 112 39 122 0 23 15 6 28
-32z"/>
<path d="M4193 2433 c-7 -3 -13 -13 -13 -23 0 -19 17 -30 38 -23 6 3 12 13 12
23 0 19 -17 30 -37 23z"/>
<path d="M5520 2418 c-46 -32 -70 -82 -70 -147 0 -133 93 -203 205 -157 37 16
43 27 22 44 -8 7 -19 6 -37 -3 -41 -23 -69 -18 -107 20 -34 34 -35 37 -31 101
4 60 7 69 38 97 30 26 38 29 81 24 36 -4 49 -2 53 8 15 39 -102 48 -154 13z"/>
<path d="M2300 2270 c0 -153 1 -160 20 -160 19 0 20 7 20 160 0 153 -1 160
-20 160 -19 0 -20 -7 -20 -160z"/>
<path d="M2743 2403 c-7 -2 -13 -14 -13 -25 0 -12 -8 -27 -17 -34 -17 -13 -17
-15 0 -28 13 -10 17 -29 17 -90 0 -69 3 -80 25 -102 20 -20 34 -25 63 -22 48
4 52 32 4 36 -41 4 -52 29 -52 113 l0 59 35 0 c28 0 35 4 35 20 0 16 -7 20
-35 20 -32 0 -35 2 -35 30 0 30 -4 33 -27 23z"/>
<path d="M3983 2403 c-7 -2 -13 -16 -13 -29 0 -15 -6 -24 -15 -24 -8 0 -15 -9
-15 -20 0 -11 7 -20 15 -20 12 0 15 -16 15 -85 0 -72 3 -88 21 -106 28 -28 93
-24 97 7 3 18 -1 21 -23 17 -43 -9 -55 11 -55 93 l0 74 35 0 c28 0 35 4 35 20
0 16 -7 20 -35 20 -32 0 -35 2 -35 30 0 30 -4 33 -27 23z"/>
<path d="M6343 2403 c-7 -2 -13 -16 -13 -29 0 -13 -4 -24 -10 -24 -5 0 -10 -9
-10 -20 0 -11 4 -20 9 -20 5 0 11 -39 12 -86 4 -76 7 -88 28 -105 31 -25 94
-23 99 4 3 13 -3 17 -25 17 -44 0 -53 16 -53 97 l0 73 30 0 c23 0 30 4 30 20
0 16 -7 20 -30 20 -27 0 -30 3 -30 30 0 29 -9 35 -37 23z"/>
<path d="M2440 2230 c0 -113 1 -120 20 -120 19 0 20 7 20 90 0 97 7 110 65
110 34 0 45 -31 45 -126 0 -67 2 -74 20 -74 19 0 20 7 20 94 0 79 -3 97 -21
120 -24 31 -81 36 -111 10 -16 -16 -18 -16 -24 0 -3 9 -12 16 -20 16 -11 0
-14 -24 -14 -120z"/>
<path d="M2948 2321 c-27 -24 -32 -36 -36 -87 -4 -54 -1 -63 23 -92 31 -38 80
-50 136 -33 40 12 44 17 31 38 -5 8 -13 9 -22 3 -42 -27 -111 -1 -125 48 -6
22 -5 22 84 22 l91 0 0 36 c0 86 -113 127 -182 65z m126 -30 c27 -30 11 -41
-55 -41 -63 0 -72 9 -42 42 22 24 75 23 97 -1z"/>
<path d="M3207 2343 c-4 -3 -7 -57 -7 -120 l0 -113 25 0 c25 0 25 1 25 83 0
93 13 117 62 117 21 0 38 16 38 36 0 12 -66 2 -82 -13 -17 -15 -18 -15 -18 0
0 17 -30 24 -43 10z"/>
<path d="M3410 2230 c0 -113 1 -120 20 -120 18 0 20 7 20 89 0 100 8 114 61
109 40 -4 47 -21 48 -125 1 -66 3 -73 21 -73 19 0 20 7 20 94 0 79 -3 97 -21
120 -23 29 -73 35 -112 15 -16 -9 -22 -9 -25 0 -2 6 -10 11 -18 11 -11 0 -14
-23 -14 -120z"/>
<path d="M3702 2340 c-19 -8 -21 -13 -13 -29 9 -17 15 -18 39 -9 37 14 78 3
85 -22 4 -17 0 -20 -31 -20 -21 0 -52 -9 -69 -20 -86 -52 -24 -166 71 -132 26
10 40 10 60 1 32 -15 45 -5 28 21 -7 11 -12 53 -12 95 0 67 -3 79 -25 100 -26
27 -87 33 -133 15z m116 -138 c8 -52 -74 -87 -98 -42 -9 17 -6 25 15 46 33 33
78 30 83 -4z"/>
<path d="M4150 2330 c0 -11 7 -20 15 -20 12 0 15 -18 15 -100 0 -93 1 -100 20
-100 19 0 20 7 20 120 l0 120 -35 0 c-28 0 -35 -4 -35 -20z"/>
<path d="M4339 2322 c-63 -56 -45 -185 29 -213 38 -15 92 -4 120 25 30 30 41
110 22 156 -26 64 -117 80 -171 32z m95 -12 c45 -17 56 -109 18 -152 -22 -25
-67 -23 -86 4 -25 36 -21 104 9 133 28 29 26 28 59 15z"/>
<path d="M4590 2230 c0 -113 1 -120 20 -120 18 0 20 7 20 84 0 95 11 116 60
116 40 0 50 -24 50 -119 0 -74 2 -81 20 -81 19 0 20 7 20 100 0 87 -3 103 -20
120 -24 24 -76 26 -107 5 -19 -13 -22 -13 -27 0 -3 8 -12 15 -21 15 -13 0 -15
-19 -15 -120z"/>
<path d="M4886 2337 c-24 -18 -11 -51 14 -37 26 14 73 13 88 -2 23 -23 12 -35
-34 -41 -58 -6 -94 -38 -94 -84 0 -63 60 -91 122 -59 23 12 29 12 39 0 25 -31
38 -16 33 39 -15 156 -15 156 -41 177 -30 23 -99 27 -127 7z m114 -140 c0 -42
-15 -57 -56 -57 -78 0 -45 87 34 89 18 1 22 -4 22 -32z"/>
<path d="M5784 2316 c-30 -30 -34 -40 -34 -89 0 -45 5 -61 26 -86 31 -37 80
-48 136 -32 55 17 44 37 -18 33 -55 -4 -87 14 -99 56 -6 22 -5 22 84 22 l91 0
0 36 c0 54 -44 94 -105 94 -40 0 -52 -5 -81 -34z m130 -28 c22 -31 12 -38 -55
-38 -63 0 -72 9 -42 42 23 26 78 24 97 -4z"/>
<path d="M6040 2230 c0 -113 1 -120 20 -120 18 0 20 7 20 83 0 92 13 117 61
117 41 0 49 -17 49 -112 0 -81 2 -88 20 -88 19 0 20 7 20 100 0 87 -3 103 -20
120 -24 24 -76 26 -107 5 -19 -13 -22 -13 -27 0 -3 8 -12 15 -21 15 -13 0 -15
-19 -15 -120z"/>
<path d="M6564 2331 c-75 -46 -69 -180 9 -217 25 -12 47 -15 81 -10 49 8 59
16 50 40 -5 12 -11 13 -24 6 -49 -26 -120 5 -120 52 0 16 10 18 84 18 95 0
105 8 85 67 -19 60 -103 82 -165 44z m110 -37 c33 -32 20 -44 -49 -44 -69 0
-79 8 -48 42 20 22 76 24 97 2z"/>
<path d="M6810 2230 c0 -113 1 -120 20 -120 18 0 20 7 20 78 0 91 14 119 63
124 21 2 33 9 35 21 4 22 -44 24 -76 1 -20 -14 -22 -14 -22 0 0 9 -9 16 -20
16 -19 0 -20 -7 -20 -120z"/>
<path d="M7052 2278 c-7 -7 -12 -17 -12 -24 0 -7 -6 -15 -12 -18 -10 -5 -10
-7 0 -12 7 -3 12 -26 12 -60 0 -30 5 -54 10 -54 6 0 10 25 10 55 0 42 3 55 15
55 8 0 15 5 15 10 0 6 -7 10 -15 10 -22 0 -18 21 5 27 11 3 20 9 20 14 0 13
-34 11 -48 -3z"/>
<path d="M7136 2218 c-32 -46 -7 -108 43 -108 35 0 61 28 61 67 0 58 -73 86
-104 41z m73 -20 c12 -33 -2 -63 -30 -63 -19 0 -25 6 -27 28 -2 16 -1 35 2 43
9 22 46 17 55 -8z"/>
<path d="M7280 2173 c0 -73 17 -86 22 -16 2 38 8 50 26 59 38 19 36 23 -7 21
l-41 -1 0 -63z"/>
<path d="M5877 2000 c-14 -11 -28 -34 -32 -50 -4 -17 -13 -30 -21 -30 -8 0
-14 -9 -14 -20 0 -11 7 -20 15 -20 12 0 15 -18 15 -100 l0 -100 25 0 c25 0 25
0 25 99 0 96 1 100 22 103 34 5 37 38 4 38 -18 0 -26 5 -26 18 0 24 19 42 46
42 21 0 39 22 27 34 -13 13 -62 5 -86 -14z"/>
<path d="M6084 2009 c-22 -11 -44 -48 -44 -74 0 -8 -9 -15 -20 -15 -12 0 -20
-7 -20 -16 0 -9 9 -18 20 -21 18 -5 20 -14 20 -104 0 -92 1 -99 20 -99 19 0
20 7 20 100 l0 100 25 0 c18 0 25 5 25 20 0 15 -7 20 -25 20 -44 0 -22 56 25
62 14 2 25 10 25 18 0 18 -42 23 -71 9z"/>
<path d="M2290 1845 c0 -157 1 -165 20 -165 17 0 19 8 22 78 l3 77 73 3 72 3
0 -81 c0 -73 2 -80 20 -80 19 0 20 7 20 165 0 158 -1 165 -20 165 -18 0 -20
-7 -20 -65 l0 -65 -75 0 -75 0 0 65 c0 58 -2 65 -20 65 -19 0 -20 -7 -20 -165z"/>
<path d="M3877 2004 c-4 -4 -7 -16 -7 -26 0 -14 6 -19 23 -16 14 2 22 10 22
23 0 20 -25 32 -38 19z"/>
<path d="M4708 1998 c-8 -21 2 -38 22 -38 19 0 30 17 23 38 -3 6 -13 12 -23
12 -10 0 -20 -6 -22 -12z"/>
<path d="M5627 2002 c-7 -10 -127 -311 -127 -317 0 -3 11 -5 24 -5 19 0 27 8
36 35 11 35 12 35 71 35 59 0 60 -1 75 -35 11 -27 20 -35 39 -35 l25 0 -19 48
c-10 26 -38 100 -62 165 -41 110 -51 128 -62 109z m29 -144 c9 -29 19 -59 22
-65 3 -9 -9 -13 -42 -13 -25 0 -46 4 -46 9 0 7 14 52 35 109 8 21 13 14 31
-40z"/>
<path d="M6504 1996 c-8 -21 3 -36 27 -36 15 0 20 6 17 22 -4 27 -35 37 -44
14z"/>
<path d="M4027 1973 c-4 -3 -7 -17 -7 -30 0 -14 -6 -23 -15 -23 -8 0 -15 -6
-15 -14 0 -8 7 -16 15 -20 12 -4 15 -23 15 -85 0 -101 17 -126 80 -124 49 2
53 5 45 25 -4 9 -15 13 -29 11 -42 -8 -57 21 -54 101 l3 71 33 3 c46 5 43 32
-3 32 -32 0 -35 2 -35 30 0 28 -17 40 -33 23z"/>
<path d="M2610 1824 c0 -52 4 -104 10 -114 19 -36 92 -45 129 -16 11 8 15 8
18 -1 3 -7 13 -13 24 -13 18 0 19 8 19 120 0 113 -1 120 -20 120 -18 0 -20 -7
-20 -84 0 -79 -2 -86 -26 -105 -62 -49 -94 -13 -94 106 0 76 -2 83 -20 83 -19
0 -20 -7 -20 -96z"/>
<path d="M2890 1800 c0 -113 1 -120 20 -120 18 0 20 8 22 92 3 90 4 93 30 106
21 10 33 10 48 2 18 -10 20 -21 20 -105 0 -95 0 -95 25 -95 25 0 25 0 25 95 0
91 1 96 24 106 17 8 29 8 45 0 19 -11 21 -20 21 -106 l0 -95 26 0 26 0 -4 99
c-4 119 -17 141 -83 141 -22 0 -46 -5 -53 -12 -9 -9 -15 -9 -24 0 -15 15 -82
16 -108 2 -13 -7 -21 -7 -25 0 -3 5 -13 10 -21 10 -11 0 -14 -22 -14 -120z"/>
<path d="M3317 1908 c-11 -9 -14 -18 -8 -27 7 -11 15 -11 40 -3 41 14 81 0 81
-28 0 -17 -7 -20 -39 -20 -103 0 -141 -120 -48 -153 10 -4 36 0 57 7 22 8 43
10 46 5 7 -11 54 -12 54 -1 0 4 -4 12 -9 17 -5 6 -11 48 -13 93 -3 74 -6 86
-27 103 -27 22 -108 26 -134 7z m111 -145 c-2 -31 -8 -39 -31 -47 -31 -11 -60
1 -65 27 -5 24 34 57 69 57 29 0 30 -2 27 -37z"/>
<path d="M3570 1800 c0 -113 1 -120 20 -120 19 0 20 7 20 89 0 82 2 91 22 105
60 42 88 7 88 -107 0 -80 2 -87 20 -87 19 0 20 7 20 98 0 120 -11 142 -71 142
-22 0 -49 -5 -59 -10 -13 -7 -21 -7 -25 0 -3 5 -13 10 -21 10 -11 0 -14 -22
-14 -120z"/>
<path d="M3840 1900 c0 -11 7 -20 15 -20 12 0 15 -18 15 -100 0 -93 1 -100 20
-100 19 0 20 7 20 120 l0 120 -35 0 c-28 0 -35 -4 -35 -20z"/>
<path d="M4227 1908 c-11 -9 -14 -18 -8 -27 7 -11 15 -11 40 -3 39 14 76 2 84
-27 5 -19 1 -21 -38 -21 -78 0 -126 -62 -94 -121 16 -32 54 -41 99 -25 22 8
42 10 45 6 3 -4 16 -10 30 -12 25 -5 34 9 16 27 -5 6 -11 48 -13 93 -3 74 -6
86 -27 103 -27 22 -108 26 -134 7z m121 -140 c6 -49 -75 -78 -102 -36 -16 26
29 70 69 66 24 -2 31 -8 33 -30z"/>
<path d="M4480 1800 l0 -120 25 0 c25 0 25 1 25 85 0 72 3 88 21 106 13 13 27
18 41 13 19 -6 37 8 38 29 0 11 -58 9 -81 -3 -13 -7 -19 -7 -19 0 0 5 -11 10
-25 10 l-25 0 0 -120z"/>
<path d="M4670 1900 c0 -13 7 -20 20 -20 19 0 20 -7 20 -100 0 -93 1 -100 20
-100 19 0 20 7 20 120 l0 120 -40 0 c-33 0 -40 -3 -40 -20z"/>
<path d="M4857 1908 c-11 -9 -14 -18 -8 -27 7 -11 15 -11 40 -3 41 14 81 0 81
-28 0 -17 -7 -20 -39 -20 -103 0 -141 -120 -48 -153 10 -4 36 0 57 7 22 8 43
10 46 5 7 -11 54 -12 54 -1 0 4 -4 12 -9 17 -5 6 -11 48 -13 93 -3 74 -6 86
-27 103 -27 22 -108 26 -134 7z m111 -145 c-2 -31 -8 -39 -31 -47 -31 -11 -60
1 -65 27 -5 24 34 57 69 57 29 0 30 -2 27 -37z"/>
<path d="M5110 1800 c0 -113 1 -120 20 -120 19 0 20 7 20 89 0 82 2 91 22 105
59 41 88 4 88 -111 0 -76 2 -83 20 -83 19 0 20 7 20 98 0 120 -11 142 -71 142
-22 0 -49 -5 -59 -10 -13 -7 -21 -7 -25 0 -3 5 -13 10 -21 10 -11 0 -14 -22
-14 -120z"/>
<path d="M6231 1911 c-19 -12 -6 -45 15 -37 46 18 63 17 83 -3 32 -32 26 -41
-25 -41 -71 0 -120 -57 -98 -115 15 -38 93 -53 130 -24 7 6 23 3 40 -6 32 -16
41 -7 25 24 -6 11 -11 53 -11 94 0 93 -19 117 -96 117 -27 0 -55 -4 -63 -9z
m119 -139 c0 -37 -30 -64 -67 -60 -22 2 -29 9 -31 30 -4 31 28 58 70 58 24 0
28 -4 28 -28z"/>
<path d="M6470 1900 c0 -11 7 -20 15 -20 12 0 15 -18 15 -100 l0 -100 25 0 25
0 0 120 0 120 -40 0 c-33 0 -40 -3 -40 -20z"/>
<path d="M6640 1800 l0 -120 25 0 c25 0 25 1 25 85 0 72 3 88 20 105 14 14 28
18 44 14 18 -4 25 -1 29 15 4 18 1 21 -25 21 -16 0 -38 -5 -49 -10 -13 -7 -19
-7 -19 0 0 5 -11 10 -25 10 l-25 0 0 -120z"/>
<path d="M6847 1902 c-35 -39 -12 -85 61 -124 39 -21 43 -55 8 -64 -13 -3 -34
0 -46 6 -18 10 -24 9 -31 -1 -14 -22 -5 -33 30 -40 46 -10 100 7 113 36 19 41
2 72 -52 100 -34 17 -50 32 -50 44 0 24 32 36 59 22 26 -15 28 -14 34 8 6 24
-10 31 -67 31 -29 0 -48 -6 -59 -18z"/>
<path d="M250 1795 l0 -55 900 0 900 0 0 55 0 55 -900 0 -900 0 0 -55z"/>
<path d="M250 1655 c0 -13 107 -15 900 -15 793 0 900 2 900 15 0 13 -107 15
-900 15 -793 0 -900 -2 -900 -15z"/>
<path d="M2282 1500 c-23 -54 -29 -88 -11 -57 5 9 19 17 29 17 10 0 24 -8 29
-17 18 -31 12 16 -8 66 l-17 43 -22 -52z m26 -29 c-15 -5 -21 7 -13 26 7 17 8
17 15 -2 4 -11 3 -22 -2 -24z"/>
<path d="M2870 1488 c0 -38 4 -58 9 -52 17 16 17 114 1 114 -6 0 -10 -27 -10
-62z"/>
<path d="M3350 1489 c0 -37 4 -58 10 -54 6 3 10 15 10 26 0 25 6 24 36 -8 l26
-28 -20 37 c-18 32 -19 39 -7 55 25 32 15 39 -10 8 l-25 -30 0 28 c0 15 -4 27
-10 27 -6 0 -10 -27 -10 -61z"/>
<path d="M4330 1496 c0 -30 5 -58 10 -61 6 -4 10 5 10 19 0 33 13 33 35 0 9
-14 19 -23 22 -21 3 3 -2 16 -10 28 -12 16 -13 26 -5 39 17 27 3 50 -32 50
-30 0 -30 0 -30 -54z m55 13 c-11 -17 -35 -9 -35 11 0 18 3 19 20 10 11 -6 18
-15 15 -21z"/>
<path d="M4730 1535 c0 -8 -8 -15 -18 -15 -24 0 -42 -19 -42 -45 0 -22 17 -45
34 -45 6 0 5 5 -2 12 -17 17 -15 55 3 62 18 7 30 -16 22 -44 -3 -11 -1 -23 4
-26 5 -3 9 22 9 55 0 34 -2 61 -5 61 -3 0 -5 -7 -5 -15z"/>
<path d="M4992 1538 c-7 -7 -12 -29 -12 -50 0 -31 5 -41 24 -49 17 -8 29 -8
42 0 17 9 17 10 -6 11 -30 0 -50 17 -50 41 0 23 29 51 46 45 8 -3 14 -1 14 4
0 14 -44 12 -58 -2z"/>
<path d="M5917 1543 c-14 -13 -6 -43 13 -53 27 -14 26 -40 -2 -40 -16 0 -19
-3 -11 -11 14 -14 41 -5 50 17 4 12 -3 24 -22 39 -27 23 -27 52 1 41 8 -3 14
-1 14 4 0 11 -33 14 -43 3z"/>
<path d="M2449 1532 c-9 -27 3 -91 18 -97 23 -8 31 5 10 16 -22 13 -22 45 1
58 15 9 15 10 0 11 -9 0 -18 6 -20 13 -4 9 -6 9 -9 -1z"/>
<path d="M2730 1530 c-7 -54 17 -116 37 -96 4 4 0 12 -10 17 -22 13 -22 45 1
58 15 9 15 10 0 11 -9 0 -19 6 -21 13 -4 8 -6 7 -7 -3z"/>
<path d="M6713 1527 c-18 -28 7 -97 35 -97 16 1 16 2 0 14 -19 14 -25 62 -9
68 5 2 3 9 -4 15 -11 10 -16 10 -22 0z"/>
<path d="M2908 1508 c7 -7 12 -24 12 -39 0 -15 5 -31 10 -34 6 -4 10 10 10 33
0 27 -5 42 -16 46 -24 9 -29 7 -16 -6z"/>
<path d="M3052 1508 c-33 -33 6 -92 46 -69 14 9 13 10 -10 11 -16 0 -28 5 -28
10 0 6 11 10 23 10 31 0 38 9 26 31 -11 22 -39 25 -57 7z m43 -8 c3 -5 -3 -10
-15 -10 -12 0 -18 5 -15 10 3 6 10 10 15 10 5 0 12 -4 15 -10z"/>
<path d="M3532 1508 c-29 -29 -1 -88 35 -73 17 7 16 8 -2 13 -36 8 -40 22 -6
22 28 0 32 3 29 23 -3 25 -36 35 -56 15z m48 -14 c0 -2 -9 -4 -21 -4 -11 0
-18 4 -14 10 5 8 35 3 35 -6z"/>
<path d="M3690 1478 c0 -20 5 -40 10 -43 6 -4 10 8 10 29 0 60 33 53 43 -9 3
-19 4 -13 3 15 -1 44 -2 45 -33 45 -31 1 -33 -1 -33 -37z"/>
<path d="M3860 1516 c0 -2 7 -23 15 -46 14 -39 14 -44 -2 -56 -10 -7 -13 -14
-7 -14 17 0 32 21 49 70 18 51 12 67 -8 19 l-13 -34 -12 33 c-9 26 -22 43 -22
28z"/>
<path d="M4034 1509 c-5 -9 -2 -10 9 -6 9 3 19 2 22 -3 3 -5 -4 -11 -15 -15
-20 -6 -28 -39 -12 -49 5 -3 19 -2 31 1 18 5 22 11 19 42 -2 28 -8 37 -25 39
-11 2 -25 -2 -29 -9z m35 -55 c-9 -11 -15 -12 -23 -4 -8 8 -7 13 4 20 20 12
33 1 19 -16z"/>
<path d="M4512 1508 c-29 -29 -1 -89 35 -72 16 7 15 8 -4 11 -31 6 -29 23 3
23 21 0 25 4 22 23 -3 25 -36 35 -56 15z m48 -14 c0 -2 -9 -4 -21 -4 -11 0
-18 4 -14 10 5 8 35 3 35 -6z"/>
<path d="M5160 1479 c0 -21 5 -41 10 -44 6 -4 10 8 10 29 0 22 6 38 17 44 13
8 11 10 -10 10 -25 0 -27 -4 -27 -39z"/>
<path d="M5310 1500 c-20 -38 8 -78 45 -64 21 8 30 51 15 69 -18 21 -47 19
-60 -5z m50 -25 c0 -22 -22 -40 -34 -28 -11 11 -6 51 7 56 19 7 27 -2 27 -28z"/>
<path d="M5482 1508 c-9 -9 -7 -17 10 -35 20 -21 20 -23 3 -23 -15 0 -16 -3
-7 -12 10 -9 16 -8 30 5 16 17 16 19 -8 37 -22 17 -21 25 3 21 4 0 7 4 7 9 0
14 -23 13 -38 -2z"/>
<path d="M5632 1508 c-9 -9 -7 -17 10 -35 20 -21 20 -23 3 -23 -15 0 -16 -3
-7 -12 10 -9 16 -9 28 4 15 15 15 18 -5 34 -24 21 -28 39 -6 30 8 -3 15 -1 15
4 0 14 -24 12 -38 -2z"/>
<path d="M6082 1511 c-18 -11 -11 -61 10 -74 23 -15 48 8 48 43 0 35 -29 50
-58 31z m42 -17 c3 -8 1 -24 -5 -35 -8 -16 -13 -18 -25 -8 -17 14 -18 31 -2
47 16 16 25 15 32 -4z"/>
<path d="M6252 1508 c-29 -29 -1 -88 35 -73 17 7 16 8 -2 13 -11 2 -23 9 -27
15 -10 16 11 49 28 43 8 -3 14 -1 14 4 0 14 -34 12 -48 -2z"/>
<path d="M6408 1480 c6 -56 22 -61 22 -6 0 31 -4 46 -13 46 -9 0 -11 -12 -9
-40z"/>
<path d="M6540 1500 c-6 -12 -8 -29 -5 -40 7 -23 43 -36 58 -21 8 8 4 11 -16
11 -15 0 -27 5 -27 10 0 6 14 10 30 10 31 0 39 17 18 38 -18 18 -46 14 -58 -8z
m45 0 c3 -5 -3 -10 -15 -10 -12 0 -18 5 -15 10 3 6 10 10 15 10 5 0 12 -4 15
-10z"/>
<path d="M6850 1515 c0 -2 8 -24 17 -47 12 -30 13 -43 5 -46 -7 -2 -12 -8 -12
-13 0 -4 6 -6 13 -3 14 5 53 102 44 110 -2 3 -10 -10 -17 -28 l-12 -33 -14 33
c-12 28 -24 42 -24 27z"/>
<path d="M5061 1159 c-35 -14 -50 -39 -51 -81 0 -20 -4 -40 -10 -43 -15 -9
-12 -25 4 -25 19 0 24 -18 19 -69 -4 -40 -3 -42 11 -28 10 9 16 33 16 61 0 36
4 46 21 51 23 8 20 31 -5 29 -9 -1 -17 1 -17 5 -11 62 3 97 35 85 11 -4 16 -1
16 10 0 18 -5 19 -39 5z"/>
<path d="M3045 1138 c-2 -7 -5 -24 -7 -38 -2 -19 -12 -28 -38 -36 -41 -13 -62
-41 -54 -72 5 -17 14 -22 38 -22 17 0 41 7 53 15 18 13 22 12 38 -5 22 -24 35
-26 35 -5 0 8 -5 15 -10 15 -17 0 -32 51 -31 102 1 45 -14 74 -24 46z m2 -114
c2 -6 -10 -17 -27 -24 -35 -15 -57 -3 -46 25 7 19 67 18 73 -1z"/>
<path d="M4125 1138 c-2 -7 -5 -24 -7 -38 -2 -19 -12 -28 -38 -36 -41 -13 -62
-41 -54 -72 5 -17 14 -22 38 -22 18 0 41 6 51 14 16 12 21 11 39 -5 24 -23 36
-24 36 -4 0 8 -4 15 -10 15 -18 0 -32 43 -31 96 0 50 -14 81 -24 52z m-11
-104 c24 -9 19 -20 -15 -34 -34 -14 -56 -3 -46 24 7 16 33 21 61 10z"/>
<path d="M3577 1133 c-3 -5 -8 -39 -12 -76 -8 -78 1 -97 46 -97 34 0 39 17 7
22 -17 2 -24 11 -26 30 -3 24 0 28 19 25 12 -1 24 4 26 11 3 7 -4 12 -16 12
-17 0 -21 6 -21 34 0 33 -13 55 -23 39z"/>
<path d="M5139 1113 c-1 -10 -2 -46 -3 -80 -2 -61 -2 -62 26 -68 15 -4 32 -4
38 0 17 10 11 25 -9 25 -25 0 -30 17 -26 84 3 43 0 56 -11 56 -8 0 -15 -8 -15
-17z"/>
<path d="M1165 1113 c-50 -7 -62 -13 -45 -23 8 -5 18 -6 22 -4 4 3 8 -17 8
-45 0 -43 -3 -50 -22 -53 -12 -2 -23 -9 -26 -16 -3 -10 9 -12 49 -10 31 2 54
8 57 16 2 7 -5 12 -17 12 -18 0 -21 6 -21 50 0 38 4 50 15 50 8 0 15 7 15 15
0 8 -1 14 -2 14 -2 -1 -16 -4 -33 -6z"/>
<path d="M2680 1107 c0 -7 5 -18 11 -24 5 -5 9 -32 7 -59 -3 -45 -5 -49 -28
-49 -33 0 -52 38 -46 93 4 32 2 42 -10 42 -10 0 -14 -14 -14 -58 0 -70 19
-102 60 -102 56 0 88 79 58 145 -12 26 -38 35 -38 12z"/>
<path d="M4708 1112 c-28 -3 -40 -22 -14 -22 10 0 15 -15 18 -50 3 -46 1 -50
-19 -50 -14 0 -23 -6 -23 -15 0 -11 12 -15 44 -15 26 0 48 6 56 15 10 12 9 15
-8 15 -17 0 -21 8 -24 50 -2 34 1 50 9 50 6 0 14 4 17 9 7 11 -20 17 -56 13z"/>
<path d="M1770 1095 c0 -8 7 -15 15 -15 8 0 15 7 15 15 0 8 -7 15 -15 15 -8 0
-15 -7 -15 -15z"/>
<path d="M2338 1089 c-22 -12 -23 -52 -3 -69 8 -7 25 -10 39 -6 32 8 40 42 15
67 -22 22 -27 22 -51 8z"/>
<path d="M1250 1031 c0 -33 4 -62 8 -65 5 -3 24 11 43 32 l34 37 3 -26 c2 -16
12 -31 28 -38 34 -15 40 -14 22 7 -9 9 -19 28 -23 42 -14 47 -25 53 -53 25
-26 -27 -42 -20 -42 17 0 9 -4 20 -10 23 -6 4 -10 -16 -10 -54z"/>
<path d="M2770 1032 c0 -33 4 -63 9 -67 6 -3 20 8 32 25 25 33 49 40 49 14 0
-19 28 -43 49 -44 12 0 11 3 -1 18 -9 9 -19 28 -23 42 -9 29 -24 50 -36 50 -5
0 -9 -4 -9 -10 0 -5 -9 -19 -19 -29 -19 -19 -19 -19 -27 7 -4 15 -8 30 -8 34
-1 3 -4 10 -8 14 -5 4 -8 -20 -8 -54z"/>
<path d="M3851 1028 c-1 -38 3 -68 9 -68 5 0 19 14 32 30 24 33 48 39 48 12 0
-16 37 -48 46 -39 4 3 -13 46 -35 86 -10 20 -31 26 -31 9 0 -7 -9 -19 -20 -26
-18 -11 -21 -10 -29 10 -4 13 -11 30 -14 38 -3 8 -6 -15 -6 -52z"/>
<path d="M5580 1075 c-3 -34 2 -110 7 -115 3 -3 20 13 38 35 l34 39 6 -25 c6
-23 42 -56 51 -46 3 2 -3 20 -12 38 -10 19 -20 40 -24 48 -9 20 -30 26 -30 9
0 -7 -9 -19 -20 -26 -18 -11 -21 -10 -29 10 -20 54 -19 54 -21 33z"/>
<path d="M3449 1062 c-28 -23 -20 -52 15 -52 14 0 28 -4 31 -10 6 -10 -13 -15
-47 -12 -9 1 -19 -5 -22 -14 -5 -12 2 -15 37 -12 37 3 42 6 45 30 3 22 -2 29
-22 34 -14 3 -26 10 -26 15 0 14 38 11 43 -3 3 -7 6 -3 6 8 1 12 -6 25 -15 28
-21 8 -19 9 -45 -12z"/>
<path d="M4811 1043 c1 -21 4 -49 8 -63 l7 -25 19 24 c46 54 50 57 53 33 4
-23 48 -60 59 -49 3 3 -2 13 -11 22 -9 9 -16 25 -16 35 0 10 -7 26 -17 35 -15
15 -18 14 -43 -15 l-27 -32 -7 36 c-9 47 -26 46 -25 -1z"/>
<path d="M5810 1071 c-8 -6 -17 -8 -22 -5 -11 7 -39 -53 -32 -70 7 -19 76 -41
98 -33 28 11 18 29 -12 22 -33 -7 -56 13 -46 39 7 18 47 32 63 21 6 -3 11 1
11 9 0 9 -4 16 -9 16 -5 0 -15 2 -23 5 -7 3 -20 1 -28 -4z"/>
<path d="M1486 1063 c-75 -19 -61 -115 14 -100 l30 7 0 -61 c0 -38 4 -58 10
-54 13 8 13 156 0 189 -9 26 -17 28 -54 19z m31 -29 c8 -21 -28 -57 -50 -48
-24 9 -21 39 6 52 31 15 37 14 44 -4z"/>
<path d="M1597 1064 c-4 -4 -7 -24 -7 -45 0 -42 25 -65 60 -54 10 3 21 2 24
-4 7 -10 25 -9 44 2 16 11 15 27 -2 27 -9 0 -13 10 -12 31 2 43 -19 47 -30 7
-7 -22 -17 -34 -31 -36 -20 -3 -21 0 -16 34 4 25 3 35 -5 30 -5 -3 -12 -1 -14
5 -2 5 -7 7 -11 3z"/>
<path d="M1860 1061 c0 -4 4 -11 9 -16 5 -6 11 -27 14 -48 8 -63 22 -59 29 8
2 23 8 30 25 30 13 0 23 4 23 8 0 4 0 11 0 16 0 5 -22 9 -50 9 -27 0 -50 -3
-50 -7z"/>
<path d="M2012 1051 c-27 -23 -27 -32 -1 -65 17 -21 29 -26 65 -26 24 0 44 5
44 10 0 6 -12 10 -27 10 -47 0 -59 15 -24 30 32 13 35 18 25 44 -8 22 -56 20
-82 -3z m68 1 c0 -9 -44 -32 -58 -32 -10 1 38 40 49 40 5 0 9 -4 9 -8z"/>
<path d="M3156 1054 c-21 -21 -20 -57 2 -77 20 -19 102 -24 102 -7 0 6 -12 10
-27 10 -47 0 -59 15 -24 30 32 13 35 18 25 44 -8 21 -58 21 -78 0z m64 -2 c0
-9 -44 -32 -58 -32 -10 1 38 40 49 40 5 0 9 -4 9 -8z"/>
<path d="M3290 1054 c0 -7 5 -16 10 -19 6 -3 10 -24 10 -46 0 -21 4 -39 10
-39 12 0 24 45 15 60 -11 17 15 42 30 30 15 -12 30 3 21 19 -9 15 -96 10 -96
-5z"/>
<path d="M3692 1050 c-31 -50 -2 -102 45 -81 18 8 29 9 37 1 5 -5 16 -10 24
-10 10 0 8 7 -7 26 -12 15 -21 34 -21 43 0 41 -56 56 -78 21z m51 -7 c8 -14
-12 -53 -28 -53 -18 0 -19 13 -5 41 11 20 25 25 33 12z"/>
<path d="M5257 1064 c-4 -4 -7 -24 -7 -45 0 -42 25 -65 60 -54 10 3 21 2 24
-4 7 -10 25 -9 44 2 16 11 15 27 -2 27 -9 0 -13 10 -12 31 2 43 -19 47 -30 7
-7 -22 -17 -34 -31 -36 -20 -3 -21 0 -16 34 4 25 3 35 -5 30 -5 -3 -12 -1 -14
5 -2 5 -7 7 -11 3z"/>
<path d="M5437 1058 c-23 -12 -22 -61 1 -81 19 -18 102 -24 102 -8 0 5 -19 12
-42 15 l-43 7 30 16 c38 20 46 33 31 48 -14 15 -56 16 -79 3z m63 -8 c0 -10
-41 -30 -58 -30 -10 1 39 40 49 40 5 0 9 -5 9 -10z"/>
<path d="M5926 1054 c-21 -21 -20 -57 2 -77 20 -19 102 -24 102 -7 0 6 -12 10
-27 10 -47 0 -59 15 -24 30 32 13 35 18 25 44 -8 21 -58 21 -78 0z m64 -2 c0
-9 -44 -32 -58 -32 -10 1 38 40 49 40 5 0 9 -4 9 -8z"/>
<path d="M1767 1053 c-13 -12 -7 -70 8 -83 17 -14 47 -10 53 8 2 7 -5 12 -17
12 -17 0 -21 6 -21 35 0 33 -8 43 -23 28z"/>
<path d="M4420 1045 c-16 -19 -5 -61 17 -67 25 -7 42 1 53 23 23 43 -39 82
-70 44z"/>
</g>
</svg>
